# xmcd
#
# Track frame offsets:
#	150
#	27657
#	50857
#	71932
#	93620
#	116548
#	138694
#	162003
#	185679
#	201931
#
# Disc length: 3103 seconds
#
# Revision: 2
# Processed by: cddbd v1.5.2PL0 Copyright (c) Steve Scherf et al.
# Submitted via: EZCDAudioConverter 8.0.2.1
#
DISCID=a00c1d0a
DTITLE=Quang Dũng - Đêm Thành Phố Đầy Sao
DYEAR=2004
DGENRE=Country
TTITLE0=Đất nước
TTITLE1=Một đời người một rừng cây
TTITLE2=Mặt trời bé con
TTITLE3=Nhánh lan rừng
TTITLE4=Mùa xuân 
TTITLE5=Đêm Thành Phố Đầy Sao
TTITLE6=Nhớ về Hà Nội
TTITLE7=Thành phố tình yêu và nỗi nhớ
TTITLE8=Nối vòng tay lớn
TTITLE9=Bài ca không quên
EXTD=
EXTT0=
EXTT1=
EXTT2=
EXTT3=
EXTT4=
EXTT5=
EXTT6=
EXTT7=
EXTT8=
EXTT9=
PLAYORDER=
